<svg xmlns="http://www.w3.org/2000/svg" xmlns:xlink="http://www.w3.org/1999/xlink" width="512" zoomAndPan="magnify" viewBox="0 0 384 383.999986" height="512" preserveAspectRatio="xMidYMid meet" version="1.0"><defs><g/><clipPath id="id1"><path d="M 111.667969 200.742188 L 163.605469 200.742188 L 163.605469 252.679688 L 111.667969 252.679688 Z M 111.667969 200.742188 " clip-rule="nonzero"/></clipPath></defs><path fill="rgb(0%, 18.818665%, 52.938843%)" d="M 191.882812 11.882812 C 92.472656 11.882812 11.882812 92.472656 11.882812 191.882812 C 11.882812 291.292969 92.472656 371.882812 191.882812 371.882812 C 291.292969 371.882812 371.882812 291.292969 371.882812 191.882812 C 371.882812 92.472656 291.292969 11.882812 191.882812 11.882812 " fill-opacity="1" fill-rule="nonzero"/><g fill="rgb(100%, 100%, 100%)" fill-opacity="1"><g transform="translate(170.959781, 250.880266)"><g><path d="M 72.8125 -16.1875 C 73.351562 -14.019531 73.625 -11.320312 73.625 -8.09375 C 73.625 -4.988281 73.351562 -2.289062 72.8125 0 L 56.625 0 C 56.09375 -2.289062 55.828125 -4.988281 55.828125 -8.09375 C 55.828125 -11.320312 56.09375 -14.019531 56.625 -16.1875 L 50.5625 -16.1875 C 50.019531 -18.476562 49.75 -21.171875 49.75 -24.265625 C 49.75 -27.503906 50.019531 -30.203125 50.5625 -32.359375 L 44.5 -32.359375 C 43.957031 -34.648438 43.6875 -37.347656 43.6875 -40.453125 C 43.6875 -43.679688 43.957031 -46.378906 44.5 -48.546875 L 24.265625 -48.546875 C 24.804688 -46.378906 25.078125 -43.679688 25.078125 -40.453125 C 25.078125 -37.347656 24.804688 -34.648438 24.265625 -32.359375 C 24.804688 -30.203125 25.078125 -27.503906 25.078125 -24.265625 C 25.078125 -21.171875 24.804688 -18.476562 24.265625 -16.1875 C 24.804688 -14.019531 25.078125 -11.320312 25.078125 -8.09375 C 25.078125 -4.988281 24.804688 -2.289062 24.265625 0 L 8.09375 0 C 7.550781 -2.289062 7.28125 -4.988281 7.28125 -8.09375 C 7.28125 -11.320312 7.550781 -14.019531 8.09375 -16.1875 C 7.550781 -18.476562 7.28125 -21.171875 7.28125 -24.265625 C 7.28125 -27.503906 7.550781 -30.203125 8.09375 -32.359375 C 7.550781 -34.648438 7.28125 -37.347656 7.28125 -40.453125 C 7.28125 -43.679688 7.550781 -46.378906 8.09375 -48.546875 C 7.550781 -50.835938 7.28125 -53.53125 7.28125 -56.625 C 7.28125 -59.863281 7.550781 -62.5625 8.09375 -64.71875 C 7.550781 -67.007812 7.28125 -69.707031 7.28125 -72.8125 C 7.28125 -76.039062 7.550781 -78.738281 8.09375 -80.90625 C 7.550781 -83.195312 7.28125 -85.890625 7.28125 -88.984375 C 7.28125 -92.222656 7.550781 -94.921875 8.09375 -97.078125 C 7.550781 -99.367188 7.28125 -102.066406 7.28125 -105.171875 C 7.28125 -108.410156 7.550781 -111.109375 8.09375 -113.265625 L 64.71875 -113.265625 C 65.257812 -111.109375 65.53125 -108.410156 65.53125 -105.171875 C 65.53125 -102.066406 65.257812 -99.367188 64.71875 -97.078125 L 72.8125 -97.078125 C 73.351562 -94.921875 73.625 -92.222656 73.625 -88.984375 C 73.625 -85.890625 73.351562 -83.195312 72.8125 -80.90625 L 68.765625 -80.90625 C 69.304688 -78.738281 69.578125 -76.039062 69.578125 -72.8125 C 69.578125 -69.707031 69.304688 -67.007812 68.765625 -64.71875 L 56.625 -64.71875 C 57.164062 -62.5625 57.4375 -59.863281 57.4375 -56.625 C 57.4375 -53.53125 57.164062 -50.835938 56.625 -48.546875 L 60.671875 -48.546875 C 61.210938 -46.378906 61.484375 -43.679688 61.484375 -40.453125 C 61.484375 -37.347656 61.210938 -34.648438 60.671875 -32.359375 L 66.75 -32.359375 C 67.28125 -30.203125 67.546875 -27.503906 67.546875 -24.265625 C 67.546875 -21.171875 67.28125 -18.476562 66.75 -16.1875 Z M 52.578125 -64.71875 C 52.046875 -67.007812 51.78125 -69.707031 51.78125 -72.8125 C 51.78125 -76.039062 52.046875 -78.738281 52.578125 -80.90625 C 52.046875 -83.195312 51.78125 -85.890625 51.78125 -88.984375 C 51.78125 -92.222656 52.046875 -94.921875 52.578125 -97.078125 L 24.265625 -97.078125 C 24.804688 -94.921875 25.078125 -92.222656 25.078125 -88.984375 C 25.078125 -85.890625 24.804688 -83.195312 24.265625 -80.90625 C 24.804688 -78.738281 25.078125 -76.039062 25.078125 -72.8125 C 25.078125 -69.707031 24.804688 -67.007812 24.265625 -64.71875 Z M 52.578125 -64.71875 "/></g></g></g><g fill="rgb(100%, 100%, 100%)" fill-opacity="1"><g transform="translate(251.851992, 250.880266)"><g><path d="M 72.8125 -97.078125 C 73.351562 -94.921875 73.625 -92.222656 73.625 -88.984375 C 73.625 -85.890625 73.351562 -83.195312 72.8125 -80.90625 C 73.351562 -78.738281 73.625 -76.039062 73.625 -72.8125 C 73.625 -69.707031 73.351562 -67.007812 72.8125 -64.71875 C 73.351562 -62.5625 73.625 -59.863281 73.625 -56.625 C 73.625 -53.53125 73.351562 -50.835938 72.8125 -48.546875 C 73.351562 -46.378906 73.625 -43.679688 73.625 -40.453125 C 73.625 -37.347656 73.351562 -34.648438 72.8125 -32.359375 C 73.351562 -30.203125 73.625 -27.503906 73.625 -24.265625 C 73.625 -21.171875 73.351562 -18.476562 72.8125 -16.1875 C 73.351562 -14.019531 73.625 -11.320312 73.625 -8.09375 C 73.625 -4.988281 73.351562 -2.289062 72.8125 0 L 56.625 0 C 56.09375 -2.289062 55.828125 -4.988281 55.828125 -8.09375 C 55.828125 -11.320312 56.09375 -14.019531 56.625 -16.1875 C 56.09375 -18.476562 55.828125 -21.171875 55.828125 -24.265625 C 55.828125 -27.503906 56.09375 -30.203125 56.625 -32.359375 C 56.09375 -34.648438 55.828125 -37.347656 55.828125 -40.453125 C 55.828125 -43.679688 56.09375 -46.378906 56.625 -48.546875 C 56.09375 -50.835938 55.828125 -53.53125 55.828125 -56.625 C 55.828125 -59.863281 56.09375 -62.5625 56.625 -64.71875 C 56.09375 -67.007812 55.828125 -69.707031 55.828125 -72.8125 C 55.828125 -76.039062 56.09375 -78.738281 56.625 -80.90625 L 50.5625 -80.90625 C 51.101562 -78.738281 51.375 -76.039062 51.375 -72.8125 C 51.375 -69.707031 51.101562 -67.007812 50.5625 -64.71875 C 51.101562 -62.5625 51.375 -59.863281 51.375 -56.625 C 51.375 -53.53125 51.101562 -50.835938 50.5625 -48.546875 L 46.515625 -48.546875 C 47.054688 -46.378906 47.328125 -43.679688 47.328125 -40.453125 C 47.328125 -37.347656 47.054688 -34.648438 46.515625 -32.359375 C 47.054688 -30.203125 47.328125 -27.503906 47.328125 -24.265625 C 47.328125 -21.171875 47.054688 -18.476562 46.515625 -16.1875 L 34.375 -16.1875 C 33.84375 -18.476562 33.578125 -21.171875 33.578125 -24.265625 C 33.578125 -27.503906 33.84375 -30.203125 34.375 -32.359375 C 33.84375 -34.648438 33.578125 -37.347656 33.578125 -40.453125 C 33.578125 -43.679688 33.84375 -46.378906 34.375 -48.546875 L 30.34375 -48.546875 C 29.800781 -50.835938 29.53125 -53.53125 29.53125 -56.625 C 29.53125 -59.863281 29.800781 -62.5625 30.34375 -64.71875 C 29.800781 -67.007812 29.53125 -69.707031 29.53125 -72.8125 C 29.53125 -76.039062 29.800781 -78.738281 30.34375 -80.90625 L 24.265625 -80.90625 C 24.804688 -78.738281 25.078125 -76.039062 25.078125 -72.8125 C 25.078125 -69.707031 24.804688 -67.007812 24.265625 -64.71875 C 24.804688 -62.5625 25.078125 -59.863281 25.078125 -56.625 C 25.078125 -53.53125 24.804688 -50.835938 24.265625 -48.546875 C 24.804688 -46.378906 25.078125 -43.679688 25.078125 -40.453125 C 25.078125 -37.347656 24.804688 -34.648438 24.265625 -32.359375 C 24.804688 -30.203125 25.078125 -27.503906 25.078125 -24.265625 C 25.078125 -21.171875 24.804688 -18.476562 24.265625 -16.1875 C 24.804688 -14.019531 25.078125 -11.320312 25.078125 -8.09375 C 25.078125 -4.988281 24.804688 -2.289062 24.265625 0 L 8.09375 0 C 7.550781 -2.289062 7.28125 -4.988281 7.28125 -8.09375 C 7.28125 -11.320312 7.550781 -14.019531 8.09375 -16.1875 C 7.550781 -18.476562 7.28125 -21.171875 7.28125 -24.265625 C 7.28125 -27.503906 7.550781 -30.203125 8.09375 -32.359375 C 7.550781 -34.648438 7.28125 -37.347656 7.28125 -40.453125 C 7.28125 -43.679688 7.550781 -46.378906 8.09375 -48.546875 C 7.550781 -50.835938 7.28125 -53.53125 7.28125 -56.625 C 7.28125 -59.863281 7.550781 -62.5625 8.09375 -64.71875 C 7.550781 -67.007812 7.28125 -69.707031 7.28125 -72.8125 C 7.28125 -76.039062 7.550781 -78.738281 8.09375 -80.90625 C 7.550781 -83.195312 7.28125 -85.890625 7.28125 -88.984375 C 7.28125 -92.222656 7.550781 -94.921875 8.09375 -97.078125 C 7.550781 -99.367188 7.28125 -102.066406 7.28125 -105.171875 C 7.28125 -108.410156 7.550781 -111.109375 8.09375 -113.265625 L 28.3125 -113.265625 C 28.851562 -111.109375 29.125 -108.410156 29.125 -105.171875 C 29.125 -102.066406 28.851562 -99.367188 28.3125 -97.078125 L 34.375 -97.078125 C 34.914062 -94.921875 35.1875 -92.222656 35.1875 -88.984375 C 35.1875 -85.890625 34.914062 -83.195312 34.375 -80.90625 L 37.421875 -80.90625 C 37.953125 -78.738281 38.21875 -76.039062 38.21875 -72.8125 C 38.21875 -69.707031 37.953125 -67.007812 37.421875 -64.71875 L 43.484375 -64.71875 C 42.941406 -67.007812 42.671875 -69.707031 42.671875 -72.8125 C 42.671875 -76.039062 42.941406 -78.738281 43.484375 -80.90625 L 46.515625 -80.90625 C 45.972656 -83.195312 45.703125 -85.890625 45.703125 -88.984375 C 45.703125 -92.222656 45.972656 -94.921875 46.515625 -97.078125 L 52.578125 -97.078125 C 52.046875 -99.367188 51.78125 -102.066406 51.78125 -105.171875 C 51.78125 -108.410156 52.046875 -111.109375 52.578125 -113.265625 L 72.8125 -113.265625 C 73.351562 -111.109375 73.625 -108.410156 73.625 -105.171875 C 73.625 -102.066406 73.351562 -99.367188 72.8125 -97.078125 Z M 72.8125 -97.078125 "/></g></g></g><g clip-path="url(#id1)"><path fill="rgb(0%, 42.749023%, 100%)" d="M 163.605469 210.550781 L 153.789062 200.742188 L 137.640625 216.894531 L 121.480469 200.742188 L 111.667969 210.550781 L 127.824219 226.710938 L 111.667969 242.863281 L 121.480469 252.679688 L 137.640625 236.523438 L 153.789062 252.679688 L 163.605469 242.863281 L 147.449219 226.710938 Z M 163.605469 210.550781 " fill-opacity="1" fill-rule="nonzero"/></g><path fill="rgb(100%, 100%, 100%)" d="M 137.441406 131.714844 C 136.597656 131.714844 135.753906 131.753906 134.914062 131.839844 C 134.074219 131.921875 133.242188 132.042969 132.414062 132.210938 C 131.585938 132.375 130.765625 132.578125 129.960938 132.824219 C 129.152344 133.070312 128.359375 133.351562 127.578125 133.675781 C 126.796875 134 126.035156 134.359375 125.292969 134.757812 C 124.546875 135.15625 123.824219 135.589844 123.121094 136.058594 C 122.421875 136.527344 121.742188 137.027344 121.089844 137.5625 C 120.4375 138.101562 119.8125 138.664062 119.21875 139.261719 C 118.621094 139.859375 118.054688 140.484375 117.519531 141.136719 C 116.984375 141.789062 116.480469 142.464844 116.011719 143.167969 C 115.542969 143.871094 115.109375 144.59375 114.710938 145.335938 C 114.3125 146.082031 113.953125 146.84375 113.628906 147.625 C 113.308594 148.402344 113.023438 149.199219 112.777344 150.003906 C 112.53125 150.8125 112.328125 151.628906 112.164062 152.457031 C 112 153.285156 111.875 154.121094 111.792969 154.960938 C 111.710938 155.800781 111.667969 156.640625 111.667969 157.488281 C 111.667969 158.332031 111.710938 159.171875 111.792969 160.011719 C 111.875 160.851562 112 161.6875 112.164062 162.515625 C 112.328125 163.34375 112.53125 164.160156 112.777344 164.96875 C 113.023438 165.777344 113.308594 166.570312 113.628906 167.347656 C 113.953125 168.128906 114.3125 168.890625 114.710938 169.636719 C 115.109375 170.378906 115.542969 171.101562 116.011719 171.804688 C 116.480469 172.507812 116.984375 173.183594 117.519531 173.835938 C 118.054688 174.488281 118.621094 175.113281 119.21875 175.710938 C 119.8125 176.308594 120.4375 176.875 121.089844 177.410156 C 121.742188 177.945312 122.421875 178.445312 123.121094 178.914062 C 123.824219 179.382812 124.546875 179.816406 125.292969 180.214844 C 126.035156 180.613281 126.796875 180.972656 127.578125 181.296875 C 128.359375 181.621094 129.152344 181.902344 129.960938 182.148438 C 130.765625 182.394531 131.585938 182.597656 132.414062 182.761719 C 133.242188 182.929688 134.074219 183.050781 134.914062 183.132812 C 135.753906 183.21875 136.597656 183.257812 137.441406 183.257812 C 138.285156 183.257812 139.125 183.21875 139.964844 183.132812 C 140.808594 183.050781 141.640625 182.929688 142.46875 182.761719 C 143.296875 182.597656 144.113281 182.394531 144.921875 182.148438 C 145.730469 181.902344 146.523438 181.621094 147.304688 181.296875 C 148.082031 180.972656 148.84375 180.613281 149.589844 180.214844 C 150.332031 179.816406 151.058594 179.382812 151.757812 178.914062 C 152.460938 178.445312 153.136719 177.945312 153.789062 177.410156 C 154.441406 176.875 155.066406 176.308594 155.664062 175.710938 C 156.261719 175.113281 156.828125 174.488281 157.363281 173.835938 C 157.898438 173.183594 158.402344 172.507812 158.871094 171.804688 C 159.339844 171.101562 159.773438 170.378906 160.167969 169.636719 C 160.566406 168.890625 160.929688 168.128906 161.25 167.347656 C 161.574219 166.570312 161.859375 165.777344 162.101562 164.96875 C 162.347656 164.160156 162.554688 163.34375 162.71875 162.515625 C 162.882812 161.6875 163.007812 160.851562 163.089844 160.011719 C 163.171875 159.171875 163.210938 158.332031 163.210938 157.488281 C 163.210938 156.640625 163.171875 155.800781 163.089844 154.960938 C 163.007812 154.121094 162.882812 153.285156 162.71875 152.457031 C 162.554688 151.628906 162.347656 150.8125 162.101562 150.003906 C 161.859375 149.199219 161.574219 148.402344 161.25 147.625 C 160.929688 146.84375 160.566406 146.082031 160.167969 145.335938 C 159.773438 144.59375 159.339844 143.871094 158.871094 143.167969 C 158.402344 142.464844 157.898438 141.789062 157.363281 141.136719 C 156.828125 140.484375 156.261719 139.859375 155.664062 139.261719 C 155.066406 138.664062 154.441406 138.101562 153.789062 137.5625 C 153.136719 137.027344 152.460938 136.527344 151.757812 136.058594 C 151.058594 135.589844 150.332031 135.15625 149.589844 134.757812 C 148.84375 134.359375 148.082031 134 147.304688 133.675781 C 146.523438 133.351562 145.730469 133.070312 144.921875 132.824219 C 144.113281 132.578125 143.296875 132.375 142.46875 132.210938 C 141.640625 132.042969 140.808594 131.921875 139.964844 131.839844 C 139.125 131.753906 138.285156 131.714844 137.441406 131.714844 Z M 137.441406 131.714844 " fill-opacity="1" fill-rule="nonzero"/><path fill="rgb(100%, 100%, 100%)" d="M 47.125 200.742188 L 98.667969 200.742188 L 98.667969 252.285156 L 47.125 252.285156 Z M 47.125 200.742188 " fill-opacity="1" fill-rule="nonzero"/><path fill="rgb(0%, 42.749023%, 100%)" d="M 47.125 179.804688 L 72.894531 135.167969 L 98.667969 179.804688 Z M 47.125 179.804688 " fill-opacity="1" fill-rule="nonzero"/></svg>